# xmcd CD database file
#
# Track frame offsets:
#	182
#	20195
#	41772
#	65407
#	101545
#	122227
#	143297
#	160960
#	190495
#	214825
#	251427
#	284445
#	310707
#
# Disc length: 4422 seconds
#
# Revision: 0
# Processed by: cddbd v1.5.2PL0 Copyright (c) Steve Scherf et al.
# Submitted via: CDex 1.51
#
DISCID=be11440d
DTITLE=UNH Jazz Band - Just Passin' On the Language
DYEAR=1992
DGENRE=Jazz
TTITLE0=Voyage
TTITLE1=You Don't Know What Love Is
TTITLE2=Ruby, My Dear
TTITLE3=Straight, No Chaser
TTITLE4=My Shining Hour
TTITLE5=Blues For Thad
TTITLE6=Beautiful Love
TTITLE7=Spritely Overdue
TTITLE8=Emily
TTITLE9=A Point of Departure
TTITLE10=The Happy Song
TTITLE11=Ask Me Now
TTITLE12=Basie's Back In Town
EXTD=YEAR: 1992
EXTT0=
EXTT1=
EXTT2=
EXTT3=
EXTT4=
EXTT5=
EXTT6=
EXTT7=
EXTT8=
EXTT9=
EXTT10=
EXTT11=
EXTT12=
PLAYORDER=
